<?xml version="1.0" encoding="iso-8859-1"?>
<!-- Uploaded to: SVG Repo, www.svgrepo.com, Generator: SVG Repo Mixer Tools -->
<svg height="800px" width="800px" version="1.1" id="Layer_1" xmlns="http://www.w3.org/2000/svg" xmlns:xlink="http://www.w3.org/1999/xlink" 
	 viewBox="0 0 511.598 511.598" xml:space="preserve">
<path style="fill:#F6BB42;" d="M470.336,223.823C442.826,131.372,357.19,63.948,255.799,63.948S68.774,131.372,41.264,223.823h-9.29
	v63.951c0,123.606,100.203,223.824,223.825,223.824S479.623,411.38,479.623,287.774v-63.951H470.336z"/>
<g>
	<path style="fill:#E8AA3D;" d="M117.096,463.448c6.807,5.371,13.911,10.352,21.327,14.91v-93.771h-21.327
		C117.096,384.587,117.096,463.448,117.096,463.448z"/>
	<path style="fill:#E8AA3D;" d="M63.95,403.105c6.308,10.461,13.442,20.359,21.312,29.617V280.607H63.95V403.105z"/>
	<path style="fill:#E8AA3D;" d="M181.186,498.843c6.963,2.451,14.067,4.574,21.327,6.354v-81.436h-21.327V498.843z"/>
	<path style="fill:#E8AA3D;" d="M245.137,511.333c3.544,0.171,7.088,0.265,10.664,0.265c3.575,0,7.119-0.094,10.663-0.265v-70.305
		h-21.326L245.137,511.333L245.137,511.333z"/>
	<path style="fill:#E8AA3D;" d="M330.413,498.843v-75.082h-21.327v81.436C316.345,503.417,323.449,501.294,330.413,498.843z"/>
	<path style="fill:#E8AA3D;" d="M394.362,463.558v-78.97h-21.327v93.864C380.436,473.894,387.556,468.928,394.362,463.558z"/>
	<path style="fill:#E8AA3D;" d="M447.651,403.105v-78.032h-21.312v107.649C434.207,423.464,441.341,413.566,447.651,403.105z"/>
</g>
<path style="fill:#FFCE54;" d="M97.533,382.09c-87.416-87.416-87.416-229.126,0-316.534s229.133-87.408,316.533,0
	c87.416,87.408,87.416,229.118,0,316.534C326.651,469.49,184.949,469.49,97.533,382.09z"/>
<g>
	<path style="fill:#E8AA3D;" d="M255.799,10.653c-5.886,0-10.664,4.777-10.664,10.664s4.778,10.656,10.664,10.656
		c5.885,0,10.663-4.77,10.663-10.656S261.685,10.653,255.799,10.653z"/>
	<path style="fill:#E8AA3D;" d="M255.799,415.673c-5.886,0-10.664,4.762-10.664,10.648c0,5.886,4.777,10.663,10.664,10.663
		c5.885,0,10.663-4.777,10.663-10.663C266.462,420.435,261.685,415.673,255.799,415.673z"/>
	<path style="fill:#E8AA3D;" d="M159.874,57.679c5.105-2.943,6.838-9.461,3.903-14.559c-2.951-5.098-9.461-6.846-14.567-3.903
		c-5.09,2.943-6.838,9.462-3.888,14.559C148.258,58.874,154.785,60.622,159.874,57.679z"/>
	<path style="fill:#E8AA3D;" d="M351.724,389.975c-5.09,2.935-6.838,9.461-3.902,14.551c2.95,5.105,9.461,6.839,14.566,3.903
		c5.09-2.951,6.838-9.462,3.902-14.566C363.34,388.773,356.829,387.024,351.724,389.975z"/>
	<path style="fill:#E8AA3D;" d="M75.098,131.801c5.09,2.943,11.616,1.194,14.551-3.903c2.951-5.098,1.202-11.616-3.903-14.559
		c-5.09-2.943-11.616-1.194-14.551,3.903C68.244,122.34,69.992,128.858,75.098,131.801z"/>
	<path style="fill:#E8AA3D;" d="M436.501,315.845c-5.09-2.951-11.615-1.202-14.551,3.903c-2.951,5.09-1.202,11.615,3.903,14.551
		c5.09,2.951,11.616,1.202,14.551-3.903C443.357,325.307,441.608,318.779,436.501,315.845z"/>
	<path style="fill:#E8AA3D;" d="M53.287,213.167c-5.886,0-10.648,4.77-10.648,10.656s4.762,10.656,10.648,10.656
		s10.664-4.77,10.664-10.656S59.173,213.167,53.287,213.167z"/>
	<path style="fill:#E8AA3D;" d="M458.314,213.167c-5.886,0-10.663,4.77-10.663,10.656s4.777,10.656,10.663,10.656
		s10.647-4.77,10.647-10.656S464.198,213.167,458.314,213.167z"/>
	<path style="fill:#E8AA3D;" d="M75.098,315.845c-5.105,2.935-6.838,9.462-3.903,14.551c2.935,5.105,9.461,6.854,14.551,3.903
		c5.105-2.936,6.854-9.461,3.903-14.551C86.714,314.643,80.188,312.894,75.098,315.845z"/>
	<path style="fill:#E8AA3D;" d="M425.854,113.339c-5.105,2.943-6.854,9.461-3.903,14.559c2.936,5.098,9.461,6.847,14.551,3.903
		c5.105-2.943,6.854-9.461,3.903-14.559C437.47,112.145,430.944,110.396,425.854,113.339z"/>
	<path style="fill:#E8AA3D;" d="M159.874,389.959c-5.09-2.936-11.616-1.187-14.551,3.903c-2.951,5.104-1.202,11.615,3.903,14.566
		c5.09,2.936,11.601,1.187,14.551-3.903C166.714,399.42,164.98,392.909,159.874,389.959z"/>
	<path style="fill:#E8AA3D;" d="M362.388,39.217c-5.105-2.943-11.616-1.202-14.566,3.896c-2.936,5.098-1.188,11.616,3.902,14.567
		c5.105,2.943,11.616,1.194,14.566-3.903C369.227,48.679,367.478,42.16,362.388,39.217z"/>
</g>
<path style="fill:#434A54;" d="M368.852,321.793L266.462,219.412V74.604c0-5.886-4.777-10.656-10.663-10.656
	c-5.886,0-10.664,4.77-10.664,10.656v149.219c0,0.351,0.016,0.703,0.062,1.054c0.016,0.148,0.047,0.296,0.062,0.452
	c0.031,0.195,0.047,0.383,0.093,0.578c0.031,0.172,0.078,0.343,0.125,0.515c0.031,0.164,0.078,0.335,0.125,0.5
	s0.109,0.328,0.172,0.5c0.062,0.156,0.109,0.32,0.172,0.483c0.078,0.156,0.14,0.305,0.218,0.453
	c0.078,0.164,0.141,0.328,0.234,0.492c0.078,0.148,0.172,0.289,0.25,0.429c0.094,0.156,0.188,0.312,0.281,0.461
	c0.109,0.164,0.234,0.312,0.343,0.468c0.094,0.125,0.188,0.25,0.281,0.367c0.219,0.273,0.468,0.539,0.718,0.789L353.77,336.875
	c2.093,2.076,4.809,3.123,7.541,3.123s5.465-1.047,7.541-3.123C373.004,332.707,373.004,325.962,368.852,321.793z"/>
</svg>